<?xml version="1.0" standalone="no"?>
<!DOCTYPE svg PUBLIC "-//W3C//DTD SVG 20010904//EN"
 "http://www.w3.org/TR/2001/REC-SVG-20010904/DTD/svg10.dtd">
<svg version="1.0" xmlns="http://www.w3.org/2000/svg"
 width="431.000000pt" height="431.000000pt" viewBox="0 0 431.000000 431.000000"
 preserveAspectRatio="xMidYMid meet">
<metadata>
Created by potrace 1.11, written by Peter Selinger 2001-2013
</metadata>
<g transform="translate(0.000000,431.000000) scale(0.100000,-0.100000)"
fill="#000000" stroke="none">
<path d="M1910 3945 c-205 -27 -444 -82 -545 -125 -11 -4 -47 -18 -80 -31 -33
-13 -80 -34 -105 -47 -25 -13 -76 -41 -115 -61 -216 -115 -455 -330 -585 -526
-80 -121 -114 -189 -156 -310 -29 -83 -47 -119 -99 -195 -17 -25 -41 -65 -52
-90 -45 -97 -63 -140 -63 -153 0 -7 -4 -17 -9 -22 -10 -12 -35 -91 -51 -165
-6 -30 -16 -71 -21 -91 -13 -51 -11 -488 2 -568 59 -356 208 -634 480 -896
241 -231 497 -379 884 -511 162 -55 556 -114 760 -114 163 0 504 45 665 87
142 38 154 42 290 97 151 62 168 70 280 135 371 212 649 505 785 826 9 22 21
49 26 60 20 48 51 158 70 249 18 88 19 127 16 355 -4 230 -11 312 -32 391 -22
87 -28 107 -35 125 -4 11 -14 36 -21 55 -22 62 -89 193 -130 257 -22 34 -52
94 -65 133 -55 164 -113 272 -222 419 -77 104 -215 240 -302 301 -19 13 -37
27 -40 30 -27 32 -291 181 -391 221 -104 41 -214 80 -254 89 -386 88 -630 108
-885 75z"/>
</g>
</svg>
